<?xml version="1.0" encoding="UTF-8" standalone="no"?>
<!DOCTYPE svg PUBLIC "-//W3C//DTD SVG 1.1//EN" "http://www.w3.org/Graphics/SVG/1.1/DTD/svg11.dtd">
<svg width="100%" height="100%" viewBox="0 0 25 24" version="1.1" xmlns="http://www.w3.org/2000/svg" xmlns:xlink="http://www.w3.org/1999/xlink" xml:space="preserve" xmlns:serif="http://www.serif.com/" style="fill-rule:evenodd;clip-rule:evenodd;stroke-linejoin:round;stroke-miterlimit:2;">
    <g transform="matrix(1,0,0,1,-1146.87,-0.654945)">
        <g id="Artboard2" transform="matrix(0.342252,0,0,0.342248,774.85,0.654945)">
            <rect x="1086.97" y="-0" width="70.125" height="70.125" style="fill:none;"/>
            <g id="Menu-Icon" serif:id="Menu Icon" transform="matrix(2.92183,0,0,2.92186,552.273,-7934.31)">
                <path d="M205.5,2729L184.5,2729C183.672,2729 183,2728.33 183,2727.5C183,2726.67 183.672,2726 184.5,2726L205.5,2726C206.329,2726 207,2726.67 207,2727.5C207,2728.33 206.329,2729 205.5,2729Z" style="fill:rgb(255,153,0);"/>
            </g>
            <g transform="matrix(1.5358,-1.53581,2.06604,2.06607,-699.248,1773.39)">
                <path d="M1170.87,12.655C1170.87,11.827 1169.96,11.155 1168.85,11.155L1148.88,11.155C1147.77,11.155 1146.87,11.827 1146.87,12.655C1146.87,13.483 1147.77,14.155 1148.88,14.155L1168.85,14.155C1169.96,14.155 1170.87,13.483 1170.87,12.655Z" style="fill:rgb(255,153,0);"/>
            </g>
            <g transform="matrix(1.5358,1.53581,-2.06604,2.06607,-646.957,-1755.56)">
                <path d="M1170.87,12.655C1170.87,11.827 1169.96,11.155 1168.85,11.155L1148.88,11.155C1147.77,11.155 1146.87,11.827 1146.87,12.655C1146.87,13.483 1147.77,14.155 1148.88,14.155L1168.85,14.155C1169.96,14.155 1170.87,13.483 1170.87,12.655Z" style="fill:rgb(255,153,0);"/>
            </g>
        </g>
    </g>
</svg>
